<?xml version="1.0" encoding="UTF-8" standalone="no"?>
<!DOCTYPE svg PUBLIC "-//W3C//DTD SVG 1.1//EN"
 "http://www.w3.org/Graphics/SVG/1.1/DTD/svg11.dtd">
<!-- Generated by graphviz version 8.1.0 (20230707.0739)
 -->
<!-- Pages: 1 -->
<svg width="213pt" height="188pt"
 viewBox="0.00 0.00 212.85 188.00" xmlns="http://www.w3.org/2000/svg" xmlns:xlink="http://www.w3.org/1999/xlink">
<g id="graph0" class="graph" transform="scale(1 1) rotate(0) translate(4 184)">
<polygon fill="white" stroke="none" points="-4,4 -4,-184 208.85,-184 208.85,4 -4,4"/>
<!-- 1 -->
<g id="node1" class="node">
<title>1</title>
<ellipse fill="none" stroke="black" cx="122.93" cy="-162" rx="53.4" ry="18"/>
<text text-anchor="middle" x="122.93" y="-156.95" font-family="Times,serif" font-size="14.00">RB(spatial)</text>
</g>
<!-- 2 -->
<g id="node2" class="node">
<title>2</title>
<ellipse fill="none" stroke="black" cx="73.93" cy="-90" rx="47.26" ry="18"/>
<text text-anchor="middle" x="73.93" y="-84.95" font-family="Times,serif" font-size="14.00">B(spatial)</text>
</g>
<!-- 1&#45;&gt;2 -->
<g id="edge1" class="edge">
<title>1&#45;&gt;2</title>
<path fill="none" stroke="black" d="M111.06,-144.05C105.29,-135.8 98.22,-125.7 91.8,-116.54"/>
<polygon fill="black" stroke="black" points="94.28,-114.97 85.68,-108.79 88.55,-118.99 94.28,-114.97"/>
</g>
<!-- 3 -->
<g id="node5" class="node">
<title>3</title>
<ellipse fill="none" stroke="black" cx="171.93" cy="-90" rx="32.93" ry="18"/>
<text text-anchor="middle" x="171.93" y="-84.95" font-family="Times,serif" font-size="14.00">re(a2)</text>
</g>
<!-- 1&#45;&gt;3 -->
<g id="edge4" class="edge">
<title>1&#45;&gt;3</title>
<path fill="none" stroke="black" d="M134.79,-144.05C140.65,-135.68 147.84,-125.4 154.33,-116.13"/>
<polygon fill="black" stroke="black" points="157.64,-118.51 160.51,-108.31 151.91,-114.49 157.64,-118.51"/>
</g>
<!-- 4 -->
<g id="node3" class="node">
<title>4</title>
<ellipse fill="none" stroke="black" cx="32.93" cy="-18" rx="32.93" ry="18"/>
<text text-anchor="middle" x="32.93" y="-12.95" font-family="Times,serif" font-size="14.00">re(a1)</text>
</g>
<!-- 2&#45;&gt;4 -->
<g id="edge2" class="edge">
<title>2&#45;&gt;4</title>
<path fill="none" stroke="black" d="M64,-72.05C59.2,-63.85 53.33,-53.83 47.99,-44.71"/>
<polygon fill="black" stroke="black" points="50.55,-43.17 42.48,-36.31 44.51,-46.7 50.55,-43.17"/>
</g>
<!-- 5 -->
<g id="node4" class="node">
<title>5</title>
<ellipse fill="none" stroke="black" cx="115.93" cy="-18" rx="32.41" ry="18"/>
<text text-anchor="middle" x="115.93" y="-12.95" font-family="Times,serif" font-size="14.00">cl(a2)</text>
</g>
<!-- 2&#45;&gt;5 -->
<g id="edge3" class="edge">
<title>2&#45;&gt;5</title>
<path fill="none" stroke="black" d="M84.09,-72.05C89.01,-63.85 95.03,-53.83 100.5,-44.71"/>
<polygon fill="black" stroke="black" points="104,-46.68 106.14,-36.31 98,-43.08 104,-46.68"/>
</g>
</g>
</svg>
